<?xml version="1.0" encoding="UTF-8" standalone="no"?>
<svg
   xmlns:dc="http://purl.org/dc/elements/1.1/"
   xmlns:cc="http://creativecommons.org/ns#"
   xmlns:rdf="http://www.w3.org/1999/02/22-rdf-syntax-ns#"
   xmlns:svg="http://www.w3.org/2000/svg"
   xmlns="http://www.w3.org/2000/svg"
   xmlns:sodipodi="http://sodipodi.sourceforge.net/DTD/sodipodi-0.dtd"
   xmlns:inkscape="http://www.inkscape.org/namespaces/inkscape"
   width="283"
   height="92"
   viewBox="0 0 283 92"
   version="1.1"
   id="svg2"
   inkscape:version="0.91 r13725"
   sodipodi:docname="steemit.svg">
  <metadata
     id="metadata15">
    <rdf:RDF>
      <cc:Work
         rdf:about="">
        <dc:format>image/svg+xml</dc:format>
        <dc:type
           rdf:resource="http://purl.org/dc/dcmitype/StillImage" />
        <dc:title>Steemit logo</dc:title>
      </cc:Work>
    </rdf:RDF>
  </metadata>
  <defs
     id="defs13" />
  <sodipodi:namedview
     pagecolor="#ffffff"
     bordercolor="#666666"
     borderopacity="1"
     objecttolerance="10"
     gridtolerance="10"
     guidetolerance="10"
     inkscape:pageopacity="0"
     inkscape:pageshadow="2"
     inkscape:window-width="1855"
     inkscape:window-height="1056"
     id="namedview11"
     showgrid="false"
     inkscape:zoom="2.7718586"
     inkscape:cx="93.512383"
     inkscape:cy="22.510513"
     inkscape:window-x="65"
     inkscape:window-y="24"
     inkscape:window-maximized="1"
     inkscape:current-layer="svg2" />
  <title
     id="title4">Steemit logo</title>
  <g
     id="steemit"
     style="fill:#1fbf8f;fill-opacity:1"
     transform="matrix(1.6955859,0,0,1.6955859,15.258452,14.600933)">
    <path
       class="logo__steemit"
       d="m 49,24.015935 c 0.442951,2.899198 2.896215,4.652202 6.43982,4.652202 3.407312,0 5.89465,-1.820427 5.89465,-4.787048 0,-2.191255 -1.294779,-3.640854 -3.884336,-4.247663 L 54.247261,18.89177 c -1.09034,-0.269693 -1.567364,-0.707944 -1.567364,-1.382176 0,-1.179906 1.226632,-1.719292 2.419192,-1.719292 1.567363,0 2.453265,0.674232 2.759923,1.651869 l 3.339165,0 c -0.511096,-2.73064 -2.521411,-4.416221 -6.065015,-4.416221 -3.305093,0 -5.724284,1.988985 -5.724284,4.685914 0,2.460948 1.601436,3.607142 3.748043,4.112816 l 3.134727,0.741656 c 1.260706,0.303404 1.771802,0.741655 1.771802,1.550734 0,1.179906 -1.022193,1.786715 -2.589557,1.786715 -1.499217,0 -2.62363,-0.64052 -2.998435,-1.88785 l -3.475458,0 z m 16.457318,0.269693 c 0,2.966622 1.908095,4.382509 4.599871,4.382509 1.056267,0 1.976241,-0.202269 2.555484,-0.539386 l 0,-3.067756 c -0.477024,0.337116 -1.260705,0.606809 -1.942168,0.606809 -1.124413,0 -1.805875,-0.539386 -1.805875,-1.753004 l 0,-7.75367 3.407312,0 0,-2.798064 -3.407312,0 0,-4.0116812 -3.407312,0 0,1.7024362 c 0,0.175581 0,0.385876 0,0.630884 0,1.21272 -1.009417,1.678361 -1.701527,1.678361 -0.461407,0 -0.689271,0 -0.683592,0 l 0,2.798064 2.385119,0 0,8.124498 z m 75.280302,0 c 0,2.966622 1.90809,4.382509 4.59987,4.382509 1.05627,0 1.97624,-0.202269 2.55549,-0.539386 l 0,-3.067756 c -0.47703,0.337116 -1.26071,0.606809 -1.94217,0.606809 -1.12442,0 -1.80588,-0.539386 -1.80588,-1.753004 l 0,-7.75367 3.40731,0 0,-2.798064 -3.40731,0 0,-4.0116812 -3.40731,0 0,1.7024362 c 0,0.175581 0,0.385876 0,0.630884 0,1.21272 -1.00942,1.678361 -1.70153,1.678361 -0.4614,0 -0.68927,0 -0.68359,0 l 0,2.798064 2.38512,0 0,8.124498 z m -55.52641,-0.606809 3.134727,0 c -0.511097,2.966622 -2.72585,4.989318 -6.371674,4.989318 -4.225067,0 -7.155355,-3.168891 -7.155355,-7.787382 0,-4.483644 2.964361,-7.854805 7.087209,-7.854805 4.25914,0 6.576113,3.000334 6.576113,7.382843 l 0,1.213618 -10.324156,0 c 0.102219,2.629505 1.63551,4.213951 3.816189,4.213951 1.63551,0 2.862143,-0.707944 3.236947,-2.157543 z m -3.27102,-7.821093 c -1.874021,0 -3.271019,1.146194 -3.679897,3.303737 l 6.848698,0 c -0.03407,-1.820427 -1.09034,-3.303737 -3.168801,-3.303737 z m 19.0128,7.821093 3.13473,0 c -0.5111,2.966622 -2.72585,4.989318 -6.371674,4.989318 -4.225068,0 -7.155356,-3.168891 -7.155356,-7.787382 0,-4.483644 2.964362,-7.854805 7.087209,-7.854805 4.259141,0 6.576111,3.000334 6.576111,7.382843 l 0,1.213618 -10.324154,0 c 0.102219,2.629505 1.63551,4.213951 3.81619,4.213951 1.635509,0 2.862144,-0.707944 3.236944,-2.157543 z m -3.271018,-7.821093 c -1.874021,0 -3.271019,1.146194 -3.679897,3.303737 l 6.848695,0 c -0.0341,-1.820427 -1.090337,-3.303737 -3.168798,-3.303737 z m 20.746268,-0.842791 c -0.78368,-1.146195 -2.28289,-1.988985 -3.98655,-1.988985 -1.70366,0 -3.06658,0.640521 -3.78212,1.584446 l 0,-1.24733 -3.40731,0 0,14.967955 3.40731,0 0,-10.04606 c 0.30666,-1.48331 1.46515,-2.224966 2.69178,-2.224966 1.66958,0 2.48734,1.213618 2.48734,3.067757 l 0,9.203269 3.40731,0 0,-10.04606 c 0.30666,-1.48331 1.46514,-2.224966 2.69178,-2.224966 1.66958,0 2.48733,1.213618 2.48733,3.067757 l 0,9.203269 3.40732,0 0,-9.742655 c 0,-3.404873 -1.80588,-5.562416 -4.90653,-5.562416 -2.04439,0 -3.44139,0.775367 -4.49766,1.988985 z m 16.81935,-1.694008 -3.40731,0 0,14.967955 3.40731,0 0,-14.967955 z M 135.6735,9.1069756 C 135.6735,7.9325958 134.67741,7 133.54393,7 c -1.13348,0 -2.12957,0.9325958 -2.12957,2.1069756 0,1.1743804 0.99609,2.1069754 2.12957,2.1069754 1.13348,0 2.12957,-0.932595 2.12957,-2.1069754 z"
       id="path7"
       style="fill:#1fbf8f;fill-opacity:1"
       inkscape:connector-curvature="0" />
    <path
       class="logo__steemit"
       d="M 32.700495,11.380725 C 31.131077,9.8114096 29.304378,8.6631302 27.361901,7.9231279 c 1.132039,-3.3300103 5.145633,-4.542083 5.145633,-4.542083 0,0 -9.365051,-4.8610495 -19.707773,-2.92173314 C 9.3521872,1.0079342 6.0461183,3.1258717 3.627671,5.9200183 -1.6208743,11.980382 -0.92621387,21.102824 5.1842248,26.308357 c 0.939078,0.803796 3.0359233,2.054144 3.0745155,2.117938 -1.3764567,3.495873 -5.7759726,4.452772 -5.7759726,4.452772 0,0 5.8145649,3.636218 13.6230623,4.580359 2.071117,0.255173 4.270875,0.318967 6.547818,0.07655 3.614806,-0.293449 7.216749,-2.207248 9.956799,-4.899325 5.930341,-5.843467 5.981797,-15.361427 0.09005,-21.255928 z m -2.675729,18.933851 c -2.212622,2.168973 -5.518691,3.546908 -8.065779,3.738288 -1.800971,0.178621 -3.730584,0.204138 -5.583011,-0.02552 -2.727185,-0.331725 -4.69539,-1.084486 -6.6250023,-1.811729 0.9776703,-0.944141 1.9553403,-2.245524 2.3541273,-3.368286 0.257281,-0.663451 0.231553,-1.403453 -0.07719,-2.054145 -2.0711169,-4.261392 -1.170631,-9.364856 2.23835,-12.682108 2.469904,-2.411387 5.866021,-3.546907 9.313595,-3.125872 2.534224,0.306208 4.836895,1.416212 6.637866,3.215183 4.373788,4.388979 4.219419,11.814519 -0.192961,16.114187 z"
       id="path9"
       style="fill:#1fbf8f;fill-opacity:1"
       inkscape:connector-curvature="0" />
  </g>
</svg>
